<svg width="291" height="378" viewBox="0 0 291 378" fill="none" xmlns="http://www.w3.org/2000/svg">
<path d="M84.9363 250.37V244.652C80.3623 249.988 75.1784 252.657 69.3846 252.657C63.5908 252.657 58.7881 250.065 54.9764 244.881C51.1647 239.697 49.2589 233.065 49.2589 224.984V177.414C49.2589 169.943 51.2409 163.844 55.2051 159.118C59.3217 154.239 64.3532 151.799 70.2994 151.799C75.6358 151.799 80.5147 153.781 84.9363 157.746V90.5073H94.5418V250.37H84.9363ZM84.9363 159.118C81.1246 155.459 77.2367 153.629 73.2725 153.629C69.0034 153.629 65.4967 155.763 62.7523 160.033C60.1603 164.149 58.8643 169.486 58.8643 176.042V228.643C58.8643 235.352 60.0078 240.688 62.2948 244.652C64.7343 248.464 67.9362 250.37 71.9003 250.37C76.3219 250.37 80.6672 247.854 84.9363 242.822V159.118ZM132.942 154.315V177.414H133.628C135.305 170.095 137.669 164.454 140.718 160.49C143.92 156.373 148.875 154.315 155.584 154.315V163.006C151.772 163.006 148.418 163.692 145.521 165.064C142.776 166.436 140.413 168.342 138.431 170.782C136.601 173.069 135.229 175.813 134.314 179.015C133.4 182.064 132.942 185.342 132.942 188.849V250.37H123.565V154.315H132.942ZM190.477 250.37H180.871V90.5073H190.477V250.37ZM215.405 154.315H217.006L197.338 194.795L225.468 250.37H215.863L191.849 204.172V202.8L215.405 154.315ZM249.28 246.253C249.28 241.984 251.414 239.849 255.683 239.849C259.952 239.849 262.087 241.984 262.087 246.253C262.087 250.522 259.952 252.657 255.683 252.657C251.414 252.657 249.28 250.522 249.28 246.253Z" fill="white"/>
<path d="M137.234 7.53227H138.989V36.7375H137.234V7.53227ZM144.479 7.53227H146.234V36.7375H144.479V7.53227ZM151.724 7.53227H153.479V36.7375H151.724V7.53227Z" fill="white"/>
<path d="M12.9671 25.7375H11.6831V18.8615H8.51509V17.6975H16.1231V18.8615H12.9671V25.7375ZM26.9492 25.8575C24.4293 25.8575 22.7612 24.2255 22.7612 21.7175C22.7612 19.2095 24.4293 17.5775 26.9492 17.5775C29.4933 17.5775 31.1493 19.2095 31.1493 21.7175C31.1493 24.2255 29.4933 25.8575 26.9492 25.8575ZM26.9492 24.6095C28.8573 24.6095 29.7812 23.7215 29.7812 21.7175C29.7812 19.7135 28.8573 18.8135 26.9492 18.8135C25.0413 18.8135 24.1292 19.7135 24.1292 21.7175C24.1292 23.7215 25.0413 24.6095 26.9492 24.6095ZM39.5227 25.7375H38.2267V17.6975H42.4027C44.2267 17.6975 45.3547 18.5615 45.3547 20.0615C45.3547 21.3935 44.4787 22.2095 42.9667 22.2935V22.3775C43.5907 22.5455 43.8787 22.9055 44.1667 23.4095L45.5107 25.7375H44.0227L42.7387 23.5175C42.3787 22.8815 42.0067 22.6175 40.9987 22.6175H39.5227V25.7375ZM39.5227 18.8615V21.6215H42.3907C43.4707 21.6215 44.0107 21.2495 44.0107 20.2415C44.0107 19.2575 43.4707 18.8615 42.3907 18.8615H39.5227ZM56.3572 25.8575C53.8372 25.8575 52.1692 24.2255 52.1692 21.7175C52.1692 19.2095 53.8372 17.5775 56.3572 17.5775C58.9012 17.5775 60.5572 19.2095 60.5572 21.7175C60.5572 24.2255 58.9012 25.8575 56.3572 25.8575ZM56.3572 24.6095C58.2652 24.6095 59.1892 23.7215 59.1892 21.7175C59.1892 19.7135 58.2652 18.8135 56.3572 18.8135C54.4492 18.8135 53.5372 19.7135 53.5372 21.7175C53.5372 23.7215 54.4492 24.6095 56.3572 24.6095ZM68.9307 25.7375H67.6347V17.6975H69.0267L72.6267 22.4015L73.6707 23.9015H73.7667L73.7067 22.4495V17.6975H75.0027V25.7375H73.6107L69.9867 21.0455L68.9787 19.6295H68.8827L68.9307 21.0215V25.7375ZM86.3171 25.7375H85.0331V18.8615H81.8651V17.6975H89.4731V18.8615H86.3171V25.7375ZM100.299 25.8575C97.7793 25.8575 96.1113 24.2255 96.1113 21.7175C96.1113 19.2095 97.7793 17.5775 100.299 17.5775C102.843 17.5775 104.499 19.2095 104.499 21.7175C104.499 24.2255 102.843 25.8575 100.299 25.8575ZM100.299 24.6095C102.207 24.6095 103.131 23.7215 103.131 21.7175C103.131 19.7135 102.207 18.8135 100.299 18.8135C98.3913 18.8135 97.4793 19.7135 97.4793 21.7175C97.4793 23.7215 98.3913 24.6095 100.299 24.6095Z" fill="white"/>
<path d="M10.1 323.37H1.81378V309.098H9.80179C12.5284 309.098 14.1686 310.355 14.1686 312.612C14.1686 314.295 13.2313 315.552 11.0586 315.808V315.957C13.4869 316.234 14.6798 317.554 14.6798 319.429C14.6798 321.879 13.0396 323.37 10.1 323.37ZM4.09303 311.164V315.083H9.48227C11.0799 315.083 11.8893 314.466 11.8893 313.124C11.8893 311.782 11.1438 311.164 9.54617 311.164H4.09303ZM4.09303 316.979V321.303H9.84439C11.5485 321.303 12.3792 320.664 12.3792 319.109C12.3792 317.618 11.5272 316.979 9.84439 316.979H4.09303ZM34.7019 323.37H32.1457L38.5148 309.098H41.7526L48.1217 323.37H45.523L43.8828 319.663H36.3421L34.7019 323.37ZM39.1965 313.251L37.258 317.597H42.9668L41.0284 313.251L40.1976 311.228H40.0272L39.1965 313.251ZM68.5284 323.37H66.2279V309.098H73.6407C76.8785 309.098 78.8809 310.631 78.8809 313.294C78.8809 315.659 77.3259 317.107 74.6419 317.256V317.405C75.7496 317.703 76.2608 318.343 76.772 319.237L79.1578 323.37H76.5164L74.2372 319.429C73.5981 318.3 72.9378 317.831 71.1485 317.831H68.5284V323.37ZM68.5284 311.164V316.063H73.6194C75.5366 316.063 76.4951 315.403 76.4951 313.614C76.4951 311.867 75.5366 311.164 73.6194 311.164H68.5284ZM129.36 323.37H118.262V309.098H120.563V321.303H129.36V323.37ZM154.897 323.583C150.423 323.583 147.463 320.686 147.463 316.234C147.463 311.782 150.423 308.885 154.897 308.885C159.413 308.885 162.352 311.782 162.352 316.234C162.352 320.686 159.413 323.583 154.897 323.583ZM154.897 321.367C158.284 321.367 159.924 319.791 159.924 316.234C159.924 312.676 158.284 311.079 154.897 311.079C151.51 311.079 149.891 312.676 149.891 316.234C149.891 319.791 151.51 321.367 154.897 321.367ZM187.696 323.583C183.436 323.583 181.008 321.325 181.008 317.448V309.098H183.287V317.299C183.287 320.174 184.565 321.367 187.696 321.367C190.828 321.367 192.106 320.174 192.106 317.299V309.098H194.406V317.448C194.406 321.325 191.978 323.583 187.696 323.583ZM215.786 323.37H213.486V309.098H215.957L222.347 317.448L224.2 320.111H224.371L224.264 317.533V309.098H226.565V323.37H224.094L217.661 315.041L215.872 312.527H215.701L215.786 314.998V323.37ZM252.294 323.583C248.098 323.583 245.307 320.686 245.307 316.234C245.307 311.782 248.311 308.885 252.869 308.885C256.916 308.885 259.728 310.93 259.728 314.231V314.402H257.193V314.231C257.193 312.186 255.766 311.079 252.805 311.079C249.376 311.079 247.736 312.676 247.736 316.234C247.736 319.791 249.354 321.367 252.699 321.367C256.107 321.367 257.449 320.43 257.449 318.023V317.831H252.166V316.085H259.728V323.37H257.641V320.281H257.492C256.895 322.368 255.085 323.583 252.294 323.583ZM290.126 323.37H278.709V309.098H290.126V311.164H281.009V315.169H289.807V317.214H281.009V321.303H290.126V323.37Z" fill="white"/>
<path d="M190.539 25.7375H188.631L186.507 17.6975H187.947L189.255 22.7855L189.615 24.4895H189.711L190.143 22.7855L191.763 17.6975H193.647L195.375 22.7855L195.831 24.4895H195.927L196.263 22.7855L197.463 17.6975H198.879L196.863 25.7375H194.955L193.335 21.0575L192.747 18.9935H192.639L192.063 21.0575L190.539 25.7375ZM207.058 25.7375H205.762V17.6975H207.058V21.1055H211.786V17.6975H213.07V25.7375H211.786V22.2695H207.058V25.7375ZM221.698 25.7375H220.402V17.6975H221.698V25.7375ZM232.39 25.8575C229.99 25.8575 228.766 24.8015 228.766 23.1095V23.0375H230.062V23.2295C230.062 24.1895 230.626 24.6695 232.39 24.6695C233.926 24.6695 234.466 24.3335 234.466 23.5775C234.466 22.8815 234.058 22.6175 233.038 22.4255L231.07 22.1015C229.714 21.8615 228.754 21.2375 228.754 19.9175C228.754 18.7535 229.714 17.5775 232.21 17.5775C234.562 17.5775 235.63 18.7535 235.63 20.3255V20.3975H234.346V20.2415C234.346 19.2575 233.758 18.7655 232.09 18.7655C230.626 18.7655 230.05 19.1255 230.05 19.8455C230.05 20.5415 230.458 20.7695 231.406 20.9735L233.362 21.3095C234.97 21.5975 235.762 22.3295 235.762 23.5055C235.762 24.7295 234.766 25.8575 232.39 25.8575ZM244.098 25.7375H242.802V17.6975H244.098V21.1295H246.534L248.886 17.6975H250.422L247.614 21.6695L250.41 25.7375H248.874L246.558 22.3775H244.098V25.7375ZM263.663 25.7375H257.231V17.6975H263.663V18.8615H258.527V21.1175H263.483V22.2695H258.527V24.5735H263.663V25.7375ZM274.92 25.7375H273.636V22.9655L270.108 17.6975H271.692L273.588 20.5535L274.26 21.5735H274.356L275.016 20.5535L276.9 17.6975H278.496L274.92 22.9895V25.7375Z" fill="white"/>
<path d="M52.1658 370.495C51.5836 370.495 51.1576 370.367 50.8878 370.111C50.6179 369.841 50.483 369.486 50.483 369.046C50.483 368.932 50.4901 368.819 50.5043 368.705C50.5327 368.577 50.5611 368.45 50.5895 368.322C50.6605 368.066 50.7742 367.768 50.9304 367.427C51.1008 367.086 51.3067 366.753 51.5481 366.426C51.7895 366.099 52.0522 365.83 52.3362 365.617C52.6203 365.403 52.9185 365.297 53.2309 365.297C53.4865 365.297 53.6782 365.389 53.806 365.574C53.9481 365.759 54.0191 365.979 54.0191 366.234C54.0191 366.504 53.9338 366.781 53.7634 367.065C53.6072 367.335 53.3942 367.555 53.1244 367.725C52.812 367.938 52.457 368.045 52.0593 368.045C51.8037 368.045 51.5694 367.995 51.3564 367.896C51.1434 368.322 51.0369 368.741 51.0369 369.153C51.0369 369.451 51.1221 369.706 51.2925 369.919C51.4629 370.132 51.7469 370.239 52.1445 370.239C52.6274 370.239 53.0534 370.125 53.4226 369.898C53.7918 369.657 54.1327 369.344 54.4451 368.961C54.7717 368.577 55.0841 368.166 55.3823 367.725C55.4249 367.683 55.4533 367.661 55.4675 367.661C55.5101 367.661 55.5315 367.697 55.5315 367.768C55.5315 367.839 55.5101 367.91 55.4675 367.981C55.2119 368.379 54.9208 368.769 54.5942 369.153C54.2818 369.536 53.9267 369.855 53.5291 370.111C53.1315 370.367 52.6771 370.495 52.1658 370.495ZM51.8463 367.747C52.2155 367.747 52.5635 367.619 52.8901 367.363C53.0463 367.25 53.1812 367.115 53.2948 366.958C53.4084 366.802 53.4865 366.646 53.5291 366.49C53.5717 366.334 53.593 366.199 53.593 366.085C53.593 365.759 53.4723 365.595 53.2309 365.595C53.0747 365.595 52.8972 365.688 52.6984 365.872C52.528 366.028 52.3505 366.227 52.1658 366.469C51.9954 366.71 51.8463 366.944 51.7185 367.171C51.5907 367.385 51.5055 367.541 51.4629 367.64C51.5623 367.711 51.6901 367.747 51.8463 367.747ZM73.8047 370.665C73.5065 370.665 73.2366 370.644 72.9952 370.601C72.768 370.558 72.5976 370.516 72.484 370.473C72.3278 370.416 72.2071 370.345 72.1219 370.26C72.0509 370.161 72.0154 370.076 72.0154 370.005C72.0154 369.905 72.0651 369.855 72.1645 369.855C72.2355 369.855 72.3207 369.898 72.4201 369.983C72.6189 370.154 72.8106 370.253 72.9952 370.281C73.1514 370.281 73.3573 370.26 73.613 370.218C73.8686 370.161 74.0461 370.083 74.1455 369.983C74.3159 369.813 74.4011 369.642 74.4011 369.472C74.4011 369.358 74.3656 369.252 74.2946 369.153C74.2378 369.039 74.1526 368.932 74.039 368.833C73.8544 368.677 73.6698 368.521 73.4852 368.364C73.3005 368.194 73.1443 368.009 73.0165 367.811C72.8177 367.498 72.7183 367.193 72.7183 366.895C72.7183 366.44 72.8674 366.014 73.1656 365.617C73.4781 365.219 73.8118 364.892 74.1668 364.637C74.5502 364.367 74.9407 364.232 75.3384 364.232C75.5514 364.232 75.7502 364.282 75.9348 364.381C76.1194 364.466 76.2614 364.608 76.3608 364.807C76.375 364.835 76.3821 364.871 76.3821 364.914C76.3821 364.999 76.3537 365.056 76.2969 365.084C76.2401 365.112 76.1975 365.084 76.1691 364.999C76.0839 364.772 75.8496 364.658 75.4662 364.658C75.239 364.658 74.9904 364.701 74.7206 364.786C74.465 364.871 74.2591 364.97 74.1029 365.084C73.6201 365.453 73.3786 365.929 73.3786 366.511C73.3786 366.923 73.5136 367.292 73.7834 367.619C73.968 367.846 74.1597 368.059 74.3585 368.258C74.5715 368.442 74.749 368.627 74.891 368.812C75.033 368.982 75.0828 369.153 75.0401 369.323C74.9691 369.635 74.7632 369.891 74.4224 370.09C74.0958 370.274 73.7905 370.381 73.5065 370.409C73.5917 370.424 73.7479 370.431 73.9751 370.431C74.7845 370.431 75.4733 370.161 76.0413 369.621C76.6235 369.082 77.1561 368.442 77.6389 367.704C77.6673 367.661 77.6957 367.64 77.7241 367.64C77.7525 367.64 77.7667 367.676 77.7667 367.747C77.7667 367.832 77.7312 367.931 77.6602 368.045C77.1206 368.869 76.5596 369.515 75.9774 369.983C75.4094 370.438 74.6851 370.665 73.8047 370.665ZM94.7682 370.473C94.5126 370.473 94.328 370.388 94.2143 370.218C94.1007 370.047 94.0439 369.834 94.0439 369.579C94.0439 369.38 94.0652 369.188 94.1078 369.003C94.1504 368.805 94.2854 368.478 94.5126 368.024C94.7398 367.555 94.9883 367.065 95.2581 366.554C95.1161 366.611 94.9599 366.674 94.7895 366.745C94.6333 366.802 94.5197 366.866 94.4487 366.937C94.3919 366.966 94.3564 366.98 94.3422 366.98C94.2996 366.98 94.2783 366.951 94.2783 366.895C94.2783 366.767 94.3564 366.646 94.5126 366.532C94.6688 366.419 94.8179 366.341 94.9599 366.298C95.1161 366.256 95.2936 366.206 95.4924 366.149C95.6486 365.865 95.8119 365.574 95.9824 365.276C96.167 364.963 96.3303 364.693 96.4723 364.466C96.5717 364.324 96.7137 364.147 96.8983 363.934C97.0829 363.706 97.2888 363.522 97.5161 363.38C97.6439 363.295 97.8143 363.252 98.0273 363.252C98.1835 363.252 98.2687 363.28 98.2829 363.337C98.0699 363.394 97.8498 363.536 97.6226 363.763C97.4095 363.99 97.2036 364.253 97.0048 364.551C96.806 364.85 96.6356 365.134 96.4936 365.403C96.3516 365.659 96.2451 365.858 96.1741 366C96.4723 365.957 96.7208 365.936 96.9196 365.936C97.0332 365.936 97.1326 365.943 97.2178 365.957C97.303 365.957 97.374 365.964 97.4309 365.979C97.5445 365.993 97.6013 366.028 97.6013 366.085C97.6013 366.142 97.5303 366.17 97.3882 366.17C97.2746 366.17 97.1397 366.17 96.9835 366.17C96.8415 366.17 96.6853 366.185 96.5149 366.213C96.3871 366.227 96.2522 366.27 96.1102 366.341C95.9824 366.412 95.8972 366.49 95.8546 366.575C95.5421 367.143 95.2652 367.69 95.0238 368.215C94.7824 368.741 94.6475 369.138 94.6191 369.408C94.5765 369.863 94.7114 370.09 95.0238 370.09C95.3362 370.09 95.6486 369.955 95.9611 369.685C96.2877 369.401 96.593 369.074 96.877 368.705C97.161 368.336 97.3882 368.024 97.5587 367.768C97.6155 367.711 97.651 367.683 97.6652 367.683C97.7078 367.683 97.7291 367.718 97.7291 367.789C97.7291 367.846 97.7078 367.91 97.6652 367.981C97.4237 368.35 97.1468 368.726 96.8344 369.11C96.522 369.493 96.1883 369.82 95.8332 370.09C95.4924 370.345 95.1374 370.473 94.7682 370.473ZM115.978 370.431C115.907 370.431 115.836 370.402 115.765 370.345C115.709 370.303 115.666 370.21 115.638 370.068C115.623 369.955 115.694 369.841 115.851 369.728C116.007 369.614 116.135 369.536 116.234 369.493C116.348 369.437 116.44 369.408 116.511 369.408C116.596 369.408 116.639 369.458 116.639 369.557C116.639 369.657 116.603 369.777 116.532 369.919C116.475 370.061 116.44 370.154 116.426 370.196C116.411 370.253 116.362 370.303 116.277 370.345C116.191 370.402 116.092 370.431 115.978 370.431ZM155.794 370.452C155.609 370.452 155.517 370.345 155.517 370.132C155.517 370.019 155.538 369.855 155.581 369.642C155.694 369.188 155.914 368.769 156.241 368.386C156.568 368.002 156.944 367.647 157.37 367.321C157.81 366.994 158.25 366.696 158.691 366.426C159.131 366.142 159.514 365.886 159.841 365.659C160.437 365.247 160.991 364.835 161.502 364.424C162.028 364.012 162.447 363.579 162.759 363.124C163.086 362.656 163.249 362.151 163.249 361.612C163.249 361.129 163.079 360.76 162.738 360.504C162.411 360.234 161.957 360.099 161.375 360.099C161.091 360.099 160.757 360.142 160.373 360.227C160.004 360.312 159.642 360.44 159.287 360.611C158.946 360.781 158.655 361.001 158.414 361.271C158.187 361.527 158.066 361.832 158.052 362.187C158.052 362.372 158.002 362.464 157.903 362.464C157.803 362.464 157.732 362.372 157.69 362.187C157.675 362.13 157.668 362.059 157.668 361.974C157.668 361.52 157.86 361.129 158.243 360.802C158.641 360.476 159.131 360.227 159.713 360.057C160.31 359.886 160.906 359.801 161.502 359.801C161.943 359.801 162.355 359.858 162.738 359.972C163.136 360.085 163.455 360.277 163.696 360.547C163.938 360.802 164.059 361.165 164.059 361.633C164.059 362.258 163.86 362.833 163.462 363.359C163.065 363.884 162.546 364.374 161.907 364.828C161.282 365.283 160.629 365.723 159.947 366.149C159.72 366.291 159.429 366.469 159.074 366.682C158.719 366.895 158.35 367.136 157.966 367.406C157.583 367.661 157.228 367.938 156.901 368.237C156.589 368.535 156.348 368.84 156.177 369.153C156.106 369.295 156.071 369.401 156.071 369.472C156.071 369.657 156.277 369.792 156.688 369.877C156.93 369.919 157.256 369.948 157.668 369.962C158.08 369.976 158.513 369.983 158.968 369.983C159.422 369.983 159.869 369.976 160.31 369.962C160.75 369.934 161.14 369.87 161.481 369.77C161.808 369.671 162.042 369.55 162.184 369.408C162.34 369.266 162.433 369.025 162.461 368.684C162.475 368.57 162.468 368.435 162.44 368.279C162.411 368.109 162.383 367.981 162.355 367.896C162.34 367.867 162.333 367.818 162.333 367.747C162.333 367.676 162.355 367.64 162.397 367.64C162.454 367.64 162.525 367.704 162.61 367.832C162.695 367.945 162.766 368.123 162.823 368.364C162.894 368.606 162.93 368.84 162.93 369.067C162.93 369.437 162.816 369.721 162.589 369.919C162.362 370.118 162.07 370.253 161.715 370.324C161.36 370.409 160.991 370.452 160.608 370.452C160.125 370.452 159.578 370.438 158.968 370.409C158.371 370.395 157.81 370.381 157.285 370.367C156.774 370.352 156.404 370.36 156.177 370.388C156.106 370.402 156.035 370.416 155.964 370.431C155.907 370.445 155.85 370.452 155.794 370.452ZM185.009 370.771C184.129 370.771 183.433 370.601 182.922 370.26C182.41 369.905 182.048 369.429 181.835 368.833C181.622 368.237 181.516 367.583 181.516 366.873C181.516 366.135 181.665 365.368 181.963 364.573C182.275 363.777 182.709 363.039 183.262 362.357C183.83 361.676 184.491 361.122 185.243 360.696C185.996 360.27 186.82 360.057 187.714 360.057C188.581 360.057 189.284 360.227 189.823 360.568C190.377 360.909 190.782 361.363 191.037 361.931C191.307 362.485 191.442 363.103 191.442 363.785C191.442 364.651 191.258 365.503 190.888 366.341C190.533 367.164 190.043 367.91 189.419 368.577C188.808 369.245 188.119 369.777 187.352 370.175C186.6 370.573 185.819 370.771 185.009 370.771ZM184.69 370.324C185.499 370.324 186.266 370.118 186.99 369.706C187.714 369.295 188.361 368.748 188.929 368.066C189.497 367.385 189.937 366.639 190.249 365.83C190.576 365.006 190.739 364.196 190.739 363.401C190.739 362.606 190.533 361.931 190.121 361.378C189.724 360.809 189.049 360.525 188.098 360.525C187.402 360.525 186.692 360.717 185.968 361.101C185.258 361.47 184.604 361.974 184.008 362.613C183.412 363.252 182.929 363.983 182.559 364.807C182.204 365.617 182.027 366.461 182.027 367.342C182.027 368.166 182.275 368.869 182.772 369.451C183.27 370.033 183.909 370.324 184.69 370.324ZM210.483 370.324C210.568 369.997 210.703 369.564 210.887 369.025C211.086 368.471 211.32 367.86 211.59 367.193C211.86 366.511 212.137 365.83 212.421 365.148C212.705 364.466 212.975 363.834 213.23 363.252C213.486 362.656 213.706 362.159 213.891 361.761C214.075 361.349 214.189 361.094 214.232 360.994C214.161 361.023 213.969 361.15 213.656 361.378C213.358 361.591 213.01 361.846 212.613 362.144C212.215 362.428 211.839 362.705 211.484 362.975C211.129 363.245 210.866 363.444 210.696 363.572C210.681 363.586 210.66 363.593 210.632 363.593C210.561 363.593 210.525 363.529 210.525 363.401C210.525 363.316 210.554 363.252 210.61 363.209C211.249 362.741 211.853 362.265 212.421 361.782C213.003 361.285 213.593 360.774 214.189 360.249C214.643 359.865 214.927 359.688 215.041 359.716C215.353 359.759 215.51 359.886 215.51 360.099C215.51 360.213 215.474 360.341 215.403 360.483C215.275 360.738 215.041 361.193 214.7 361.846C214.374 362.499 213.997 363.28 213.571 364.189C213.145 365.098 212.719 366.064 212.293 367.086C211.881 368.109 211.526 369.103 211.228 370.068C211.214 370.111 211.143 370.168 211.015 370.239C210.887 370.296 210.759 370.338 210.632 370.367C210.518 370.395 210.468 370.381 210.483 370.324ZM235.578 370.686C234.839 370.686 234.243 370.551 233.789 370.281C233.348 369.997 233.029 369.628 232.83 369.174C232.631 368.705 232.532 368.194 232.532 367.64C232.532 366.76 232.702 365.915 233.043 365.105C233.384 364.296 233.824 363.55 234.364 362.869C234.918 362.187 235.507 361.598 236.132 361.101C236.771 360.604 237.388 360.234 237.985 359.993C238.454 359.808 238.922 359.716 239.391 359.716C239.888 359.716 240.328 359.823 240.711 360.036C241.095 360.249 241.287 360.596 241.287 361.079C241.287 361.307 241.237 361.548 241.137 361.804C241.123 361.875 241.059 361.924 240.946 361.953C240.832 361.967 240.79 361.938 240.818 361.867C240.903 361.612 240.946 361.392 240.946 361.207C240.946 360.824 240.804 360.547 240.52 360.376C240.25 360.206 239.916 360.121 239.519 360.121C239.078 360.121 238.638 360.22 238.198 360.419C237.644 360.675 237.076 361.051 236.494 361.548C235.912 362.031 235.372 362.606 234.875 363.273C234.378 363.941 233.98 364.672 233.682 365.467C233.384 366.248 233.235 367.058 233.235 367.896C233.235 368.549 233.419 369.117 233.789 369.6C234.158 370.083 234.79 370.324 235.684 370.324C236.181 370.324 236.636 370.218 237.048 370.005C237.474 369.777 237.843 369.493 238.155 369.153C238.439 368.826 238.709 368.386 238.965 367.832C239.235 367.278 239.369 366.738 239.369 366.213C239.369 365.83 239.27 365.489 239.071 365.19C238.887 364.878 238.567 364.672 238.113 364.573C237.9 364.53 237.672 364.509 237.431 364.509C236.906 364.509 236.373 364.615 235.833 364.828C235.308 365.041 234.847 365.311 234.449 365.638C234.349 365.709 234.278 365.744 234.236 365.744C234.136 365.744 234.129 365.638 234.215 365.425C234.3 365.212 234.541 365.013 234.939 364.828C235.294 364.644 235.699 364.495 236.153 364.381C236.622 364.267 237.083 364.211 237.538 364.211C237.694 364.211 237.836 364.218 237.964 364.232C238.106 364.246 238.248 364.267 238.39 364.296C239.029 364.424 239.476 364.672 239.732 365.041C240.001 365.396 240.136 365.808 240.136 366.277C240.136 366.831 239.98 367.406 239.668 368.002C239.369 368.584 239.014 369.06 238.603 369.429C238.177 369.813 237.701 370.118 237.175 370.345C236.65 370.573 236.117 370.686 235.578 370.686Z" fill="white"/>
</svg>
